<svg width="135" height="30" viewBox="0 0 135 30" fill="none" xmlns="http://www.w3.org/2000/svg">
<path d="M30.3385 6.78671C27.1343 4.88042 23.1189 4.83986 19.8741 6.62448C19.7524 5.56993 19.3874 4.63706 18.8601 3.90699C18.8601 3.86643 18.8196 3.86643 18.8196 3.82587C23.1594 1.63566 28.3916 1.87902 32.4881 4.63706L30.3385 6.78671ZM26.9315 17.9C27.7427 17.0888 27.9455 15.872 27.5399 14.8986L35.4895 6.90839L36.828 7.07063L40.3566 3.54196L37.6797 3.17692L37.3147 0.5L33.786 4.06923L33.9482 5.40769L25.9986 13.3573C24.9846 12.9517 23.8084 13.1545 22.9972 13.9657C21.9021 15.0608 21.9021 16.8049 22.9972 17.9C24.0923 18.9545 25.8364 18.9545 26.9315 17.9ZM25.3091 23.9434C27.2559 23.8622 29.1622 23.0916 30.6224 21.5909C33.0965 19.1168 33.6238 15.4259 32.2042 12.4245L30.0951 14.5336C30.5818 16.3182 30.0951 18.3056 28.7161 19.6846C27.4993 20.9014 25.8769 21.3881 24.2951 21.2259C24.6196 21.7126 24.8629 22.2804 25.0657 22.8888C25.1874 23.2133 25.2685 23.5783 25.3091 23.9434ZM34.5566 25.5252C39.221 20.8608 39.7888 13.6818 36.2601 8.40909L34.1105 10.5587C36.5035 14.6147 35.9762 19.928 32.4476 23.4566C30.5413 25.3629 28.0671 26.4175 25.5524 26.5392C25.5524 27.1881 25.593 27.8371 25.593 28.5671C25.593 28.8511 25.593 29.1755 25.593 29.5C28.8378 29.3378 32.042 27.9993 34.5566 25.5252ZM26.3231 10.7615L28.4322 8.65245C25.6336 7.31399 22.2266 7.67902 19.7524 9.78811C19.8741 10.0315 19.9147 10.2748 19.9958 10.5182C20.1175 11.2077 20.0364 11.9783 19.7524 12.9923C19.5091 13.8846 19.2252 14.5336 18.9007 15.0203C18.6979 15.3448 18.4545 15.5881 18.2112 15.7503C18.049 16.2776 17.8462 16.7643 17.6028 17.251C18.1706 17.5755 19.0629 18.0217 20.2797 18.549C19.1441 16.521 19.428 13.8846 21.172 12.1406C22.5916 10.7615 24.5385 10.2748 26.3231 10.7615ZM5.67832 12.1406C6.08392 13.5601 6.44895 13.9252 6.73287 13.9657C7.05734 15.9937 8.15245 18.5895 11.6406 18.8734C15.0881 18.7517 16.1427 16.1965 16.5077 14.2091C16.5888 14.2496 16.6294 14.2902 16.7105 14.2902C16.9944 14.2902 17.3594 13.9252 17.765 12.465C18.1706 10.9643 17.9273 10.4776 17.5622 10.3559C18.7385 4.63706 16.021 4.47483 16.021 4.47483C16.021 4.47483 15.6154 3.7042 14.5203 3.0958C13.9119 2.73077 13.0601 2.40629 11.965 2.40629C11.8028 2.40629 11.6406 2.40629 11.4378 2.44685C10.9916 2.48741 10.586 2.56853 10.221 2.69021C9.73427 2.85245 9.28811 3.0958 8.88252 3.37972C8.3958 3.7042 7.90909 4.06923 7.5035 4.51538C6.85455 5.2049 6.24615 6.05664 6.0028 7.15175C5.75944 8.08462 5.75944 9.05804 6.12448 10.072C6.08392 10.072 6.04336 10.072 6.04336 10.072C5.63776 9.99091 5.15105 10.3559 5.67832 12.1406ZM20.4825 20.8203C17.6028 19.7252 15.8587 18.5895 15.8587 18.5895L13.6685 25.6063L13.3846 26.5392L12.3706 23.7406C14.642 20.5364 12.2084 20.4147 11.7622 20.4147C11.3566 20.4147 8.88252 20.5769 11.1538 23.7406L10.1399 26.5392L9.85594 25.6063L7.62517 18.5895C7.62517 18.5895 5.88112 19.7252 3.0014 20.8203C-0.121678 21.9965 0.0405594 24.5923 0 29.5H11.7622H11.8028H23.565C23.4839 24.5923 23.6867 21.9965 20.4825 20.8203Z" fill="#EE2B69"/>
<path d="M57.0686 7.16C58.2846 7.16 59.3246 7.368 60.1886 7.784C61.0526 8.184 61.7166 8.768 62.1806 9.536C62.6606 10.288 62.9006 11.2 62.9006 12.272C62.9006 13.344 62.6606 14.264 62.1806 15.032C61.7166 15.784 61.0526 16.368 60.1886 16.784C59.3246 17.184 58.2846 17.384 57.0686 17.384H53.7326V23H50.4206V7.16H57.0686ZM56.5646 14.768C57.5566 14.768 58.3006 14.56 58.7966 14.144C59.2926 13.712 59.5406 13.088 59.5406 12.272C59.5406 11.44 59.2926 10.816 58.7966 10.4C58.3006 9.984 57.5566 9.776 56.5646 9.776H53.7326V14.768H56.5646ZM66.5363 9.272C65.8483 9.272 65.3363 9.128 65.0003 8.84C64.6643 8.536 64.4963 8.096 64.4963 7.52C64.4963 6.928 64.6643 6.488 65.0003 6.2C65.3363 5.896 65.8483 5.744 66.5363 5.744C67.2243 5.744 67.7363 5.896 68.0723 6.2C68.4083 6.488 68.5763 6.928 68.5763 7.52C68.5763 8.096 68.4083 8.536 68.0723 8.84C67.7363 9.128 67.2243 9.272 66.5363 9.272ZM68.1683 11V23H64.8803V11H68.1683ZM75.1817 7.328V19.088C75.1817 19.664 75.3257 20.088 75.6137 20.36C75.9177 20.616 76.3257 20.744 76.8377 20.744C77.2377 20.744 77.5897 20.688 77.8937 20.576C78.1977 20.448 78.4697 20.28 78.7097 20.072L79.2377 22.256C78.8537 22.56 78.3737 22.8 77.7977 22.976C77.2217 23.152 76.6137 23.24 75.9737 23.24C75.1737 23.24 74.4617 23.12 73.8377 22.88C73.2297 22.64 72.7497 22.256 72.3977 21.728C72.0617 21.2 71.8937 20.496 71.8937 19.616V8.24L75.1817 7.328ZM79.0217 11V13.448H69.6857V11H79.0217ZM85.9742 10.76C87.0462 10.76 87.9502 10.92 88.6862 11.24C89.4382 11.544 90.0382 11.968 90.4862 12.512C90.9502 13.04 91.2782 13.632 91.4702 14.288L88.3982 15.392C88.2382 14.672 87.9662 14.128 87.5822 13.76C87.1982 13.392 86.6782 13.208 86.0222 13.208C85.4142 13.208 84.8942 13.352 84.4622 13.64C84.0302 13.912 83.7022 14.336 83.4782 14.912C83.2542 15.472 83.1422 16.176 83.1422 17.024C83.1422 17.872 83.2542 18.576 83.4782 19.136C83.7182 19.696 84.0542 20.112 84.4862 20.384C84.9342 20.656 85.4542 20.792 86.0462 20.792C86.5262 20.792 86.9342 20.712 87.2702 20.552C87.6062 20.376 87.8782 20.128 88.0862 19.808C88.3102 19.488 88.4622 19.104 88.5422 18.656L91.5182 19.616C91.3422 20.336 91.0142 20.968 90.5342 21.512C90.0542 22.056 89.4382 22.48 88.6862 22.784C87.9342 23.088 87.0622 23.24 86.0702 23.24C84.8382 23.24 83.7502 22.992 82.8062 22.496C81.8622 22 81.1342 21.288 80.6222 20.36C80.1102 19.432 79.8542 18.312 79.8542 17C79.8542 15.688 80.1102 14.568 80.6222 13.64C81.1342 12.712 81.8542 12 82.7822 11.504C83.7102 11.008 84.7742 10.76 85.9742 10.76ZM93.3531 23V5.744H96.6411V13.04C97.0251 12.272 97.5531 11.704 98.2251 11.336C98.8971 10.952 99.6571 10.76 100.505 10.76C101.337 10.76 102.073 10.92 102.713 11.24C103.369 11.56 103.881 12.048 104.249 12.704C104.633 13.344 104.825 14.152 104.825 15.128V23H101.537V16.088C101.537 15.048 101.337 14.336 100.937 13.952C100.537 13.552 100.025 13.352 99.4011 13.352C98.9371 13.352 98.4891 13.464 98.0571 13.688C97.6411 13.896 97.2971 14.248 97.0251 14.744C96.7691 15.224 96.6411 15.864 96.6411 16.664V23H93.3531Z" fill="black"/>
<path d="M109.148 9.272C108.46 9.272 107.948 9.128 107.612 8.84C107.276 8.536 107.108 8.096 107.108 7.52C107.108 6.928 107.276 6.488 107.612 6.2C107.948 5.896 108.46 5.744 109.148 5.744C109.836 5.744 110.348 5.896 110.684 6.2C111.02 6.488 111.188 6.928 111.188 7.52C111.188 8.096 111.02 8.536 110.684 8.84C110.348 9.128 109.836 9.272 109.148 9.272ZM110.78 11V23H107.492V11H110.78ZM118.898 5.504C119.458 5.504 119.962 5.568 120.41 5.696C120.874 5.808 121.218 5.952 121.442 6.128L120.986 8.312C120.81 8.2 120.61 8.112 120.386 8.048C120.162 7.984 119.898 7.952 119.594 7.952C118.97 7.952 118.474 8.096 118.106 8.384C117.738 8.656 117.554 9.128 117.554 9.8V11.456L117.698 12.104V23H114.41V9.56C114.41 8.888 114.522 8.296 114.746 7.784C114.97 7.272 115.282 6.848 115.682 6.512C116.082 6.176 116.554 5.928 117.098 5.768C117.658 5.592 118.258 5.504 118.898 5.504ZM121.346 11V13.448H112.322V11H121.346ZM133.879 11L129.031 23.744C128.647 24.832 128.215 25.696 127.735 26.336C127.271 26.976 126.727 27.44 126.103 27.728C125.495 28.016 124.767 28.16 123.919 28.16C123.295 28.16 122.719 28.08 122.191 27.92C121.679 27.776 121.231 27.584 120.847 27.344L121.543 24.968C121.847 25.208 122.167 25.376 122.503 25.472C122.839 25.584 123.223 25.64 123.655 25.64C124.103 25.64 124.487 25.544 124.807 25.352C125.143 25.16 125.423 24.776 125.647 24.2L126.055 23.168L124.735 20.048L121.063 11H124.711L126.991 18.2L127.615 20.6L128.359 18.056L130.543 11H133.879Z" fill="#EE2B69"/>
</svg>
