<svg width="120" height="120" viewBox="0 0 120 120" fill="none" xmlns="http://www.w3.org/2000/svg">
<mask id="mask0_109004_999" style="mask-type:luminance" maskUnits="userSpaceOnUse" x="0" y="16" width="120" height="88">
<path d="M120 16.5H0V103.5H120V16.5Z" fill="white"/>
</mask>
<g mask="url(#mask0_109004_999)">
<path d="M90.2113 35.3601C80.6833 29.6413 68.7439 29.5196 59.0954 34.8735C58.7338 31.7098 57.6481 28.9112 56.0804 26.721C56.0804 26.5993 55.9599 26.5993 55.9599 26.4776C68.8644 19.907 84.4223 20.6371 96.6033 28.9112L90.2113 35.3601ZM80.0807 68.7C82.4926 66.2666 83.0956 62.6163 81.8895 59.6959L105.528 35.7252L109.508 36.2119L120 25.6259L112.04 24.5308L110.955 16.5L100.462 27.2077L100.945 31.2231L77.3067 55.0721C74.2917 53.8553 70.7942 54.4637 68.3818 56.8972C65.1258 60.1825 65.1258 65.4149 68.3818 68.7C71.6383 71.8635 76.8242 71.8635 80.0807 68.7ZM75.2564 86.8301C81.0453 86.5869 86.7137 84.2751 91.0554 79.7726C98.4121 72.3503 99.9798 61.2776 95.7587 52.2735L89.4876 58.6007C90.9349 63.9548 89.4877 69.9169 85.387 74.0537C81.7689 77.7045 76.9447 79.1646 72.2414 78.6777C73.2061 80.1379 73.9297 81.8412 74.5328 83.6666C74.8944 84.6399 75.1359 85.7352 75.2564 86.8301ZM102.754 91.5757C116.623 77.5824 118.312 56.0455 107.819 40.2273L101.427 46.6763C108.543 58.8441 106.975 74.7837 96.4823 85.3699C90.8144 91.0889 83.4572 94.2523 75.98 94.6176C75.98 96.5646 76.1005 98.5111 76.1005 100.701C76.1005 101.553 76.1005 102.527 76.1005 103.5C85.7486 103.013 95.2766 98.998 102.754 91.5757ZM78.2714 47.2846L84.5429 40.9574C76.2211 36.942 66.0905 38.0371 58.7338 44.3644C59.0954 45.0944 59.2163 45.8245 59.4574 46.5546C59.819 48.6231 59.5779 50.935 58.7338 53.977C58.0102 56.6539 57.166 58.6007 56.2009 60.0609C55.5978 61.0343 54.8742 61.7646 54.1506 62.251C53.6685 63.8327 53.0654 65.2929 52.3418 66.753C54.0301 67.7267 56.6835 69.0653 60.3015 70.647C56.9245 64.5628 57.7687 56.6539 62.955 51.4217C67.1761 47.2846 72.965 45.8245 78.2714 47.2846ZM16.8844 51.4217C18.0905 55.6804 19.1759 56.7755 20.0201 56.8972C20.9849 62.9811 24.2412 70.7686 34.6131 71.6203C44.8646 71.2555 48.0001 63.5895 49.0853 57.6273C49.3268 57.749 49.4473 57.8706 49.6884 57.8706C50.5325 57.8706 51.6182 56.7755 52.8243 52.3951C54.0301 47.8931 53.3065 46.4329 52.2213 46.0678C55.7188 28.9112 47.6381 28.4245 47.6381 28.4245C47.6381 28.4245 46.4323 26.1126 43.1759 24.2874C41.3669 23.1923 38.8342 22.2189 35.5779 22.2189C35.0955 22.2189 34.6131 22.2189 34.0101 22.3406C32.6834 22.4622 31.4774 22.7056 30.392 23.0706C28.9447 23.5573 27.6181 24.2874 26.4121 25.1392C24.9649 26.1126 23.5176 27.2077 22.3116 28.5461C20.3819 30.6147 18.5729 33.1699 17.8493 36.4553C17.1257 39.2539 17.1257 42.1742 18.2111 45.2161C18.0905 45.2161 17.9698 45.2161 17.9698 45.2161C16.7639 44.9727 15.3166 46.0678 16.8844 51.4217ZM60.9046 77.4608C52.3418 74.1757 47.156 70.7686 47.156 70.7686L40.6432 91.8189L39.799 94.6176L36.784 86.2216C43.5377 76.6091 36.3015 76.2443 34.9749 76.2443C33.7689 76.2443 26.4121 76.7307 33.1659 86.2216L30.1508 94.6176L29.3065 91.8189L22.6734 70.7686C22.6734 70.7686 17.4875 74.1757 8.92461 77.4608C-0.36181 80.9895 0.120603 88.7771 0 103.5H34.9749H35.0955H70.0706C69.8291 88.7771 70.4322 80.9895 60.9046 77.4608Z" fill="#EE2B69"/>
</g>
</svg>
